<svg xmlns="http://www.w3.org/2000/svg" xmlns:xlink="http://www.w3.org/1999/xlink" style="width:0;height:0;visibility:hidden;">
  <defs/>
  <symbol id="rd-icon-spotter" viewBox="0 0 48 48" fill="black">
    <path d="M0 0 C1.86035156 0.29663086 1.86035156 0.29663086 4 1 C5.71136828 3.49225485 7.2363561 5.95499081 8.75 8.5625 C22.10494808 30.24564968 43.3443986 44.49394074 65 57 C66.70929688 57.99386719 66.70929688 57.99386719 68.453125 59.0078125 C76.81497138 63.6554434 85.5100286 67.50222242 94.25 71.375 C112.18447307 79.33590192 128.73938799 87.5194527 144 100 C144.61746094 100.50321777 145.23492188 101.00643555 145.87109375 101.52490234 C156.81296464 110.51493316 166.91748365 120.08984601 175.7578125 131.1953125 C178.09490164 134.11870972 180.5111798 136.96289652 182.9375 139.8125 C188.332542 146.28985517 193.1893957 153.08446675 198 160 C199.24335486 161.77874001 200.4868548 163.55737862 201.73046875 165.3359375 C208.85333901 175.53857162 215.92915257 185.77244072 222.92700195 196.0612793 C223.42159912 196.78742432 223.91619629 197.51356934 224.42578125 198.26171875 C224.85286377 198.89037842 225.27994629 199.51903809 225.7199707 200.16674805 C227.1022364 202.1464225 228.5414174 204.07605376 230 206 C234.85813949 199.64155272 239.26684098 193.09604519 243.5 186.3125 C270.63685261 142.92682182 270.63685261 142.92682182 288.28515625 124.76611328 C289.49968998 123.51526803 290.70736035 122.25774176 291.91015625 120.99560547 C301.86641285 110.56215834 312.1843986 101.28253337 324 93 C324.6094043 92.57251465 325.21880859 92.1450293 325.84667969 91.70458984 C338.80708816 82.74382205 352.94981794 76.41993215 367.3125 70.0625 C368.48184082 69.54453857 369.65118164 69.02657715 370.85595703 68.49291992 C372.01208496 67.98092041 373.16821289 67.4689209 374.359375 66.94140625 C375.49052734 66.44012207 376.62167969 65.93883789 377.78710938 65.42236328 C379.78469914 64.53801997 381.78322837 63.65579174 383.78320312 62.77685547 C400.40019602 55.43438912 415.33471913 46.02710608 429 34 C429.98355469 33.14921875 430.96710938 32.2984375 431.98046875 31.421875 C441.26512126 23.25509229 449.32749795 14.27832429 455.74609375 3.64453125 C457 2 457 2 460 1 C461.3308911 3.66178221 461.11268993 5.68739396 461.09765625 8.6640625 C461.09443359 9.78554687 461.09121094 10.90703125 461.08789062 12.0625 C461.07951172 13.238125 461.07113281 14.41375 461.0625 15.625 C461.05798828 16.80835938 461.05347656 17.99171875 461.04882812 19.2109375 C461.03701467 22.14067507 461.02054258 25.07031272 461 28 C468.58268048 22.13857783 475.08820018 15.9449718 481.46875 8.8203125 C483.26883791 6.814659 485.06395048 4.87064244 487 3 C491.41771796 13.94749231 490.18593787 29.16757296 486 40 C477.98175181 58.68640176 464.06075253 69.52820371 446 78 C447.051875 77.69255859 447.051875 77.69255859 448.125 77.37890625 C453.76853609 75.77632603 459.15876543 74.55105987 465 74 C463.34081799 78.23555159 460.22326047 81.15946866 457.0625 84.3125 C456.48564453 84.88991943 455.90878906 85.46733887 455.31445312 86.06225586 C451.04583181 90.22369308 446.6215293 93.5559199 441.4375 96.53515625 C438.75514852 98.14714632 436.40519109 100.0028324 434 102 C434.05563651 103.83468832 434.05563651 103.83468832 435 106 C436.40288457 107.20247249 437.81364953 108.39742446 439.26953125 109.53515625 C441.84056869 111.71154235 443.92667927 114.2326022 446.1015625 116.796875 C447.37498158 118.27466998 448.68339051 119.72296911 450.0234375 121.140625 C478.02886394 150.86479602 492.21460509 189.54801691 491.13623047 230.11767578 C490.26916409 248.46281147 485.78923931 266.64716973 477.4152832 282.98876953 C475.80367278 286.28640159 474.91376716 288.25066636 475.33984375 291.953125 C477.27474062 295.50422984 479.61417689 298.47133626 482.14990234 301.61230469 C485.08509163 305.40039537 487.45238835 309.46174703 489.8125 313.625 C490.32312988 314.52524902 490.83375977 315.42549805 491.35986328 316.35302734 C535.60678605 396.04691089 529.64651097 496.93532608 501 618 C480.11588829 690.87752374 446.59923046 760.64988995 394.9609375 816.85546875 C393.17707266 818.80634883 391.46047206 820.79748048 389.75 822.8125 C373.87963132 840.85537854 373.87963132 840.85537854 363 845 C361.65808594 845.6496875 361.65808594 845.6496875 360.2890625 846.3125 C356.36767554 848.06998435 353.51023142 849.33135879 349.22265625 848.390625 C346.73244305 847.3813756 344.39353896 846.21596899 342 845 C331.59485463 841.4274179 318.79236243 844.00365749 309 848 C307.43571927 848.87181251 305.87304215 849.74651298 304.3125 850.625 C302.18359375 851.640625 302.18359375 851.640625 300 852 C297.185999 850.86918043 294.98470724 849.45663401 292.5546875 847.6484375 C284.07853576 842.17911635 271.97630643 842.87263673 262.35546875 844.6875 C248.4854433 848.63626169 236.84145511 856.85839209 229 869 C226.05236813 866.1416903 223.3605705 863.23291312 220.75 860.0625 C213.66283856 851.93445956 203.66544384 846.65041905 193 845 C181.45266016 844.22849099 172.67383654 845.63640236 162.0234375 850.3046875 C158.06141998 851.21584915 156.70564331 850.28602768 153.25 848.25 C142.68509533 842.5712013 132.36893928 841.63162004 120.71484375 844.9296875 C118.71654848 845.60816694 116.72772369 846.31579855 114.75390625 847.0625 C108.24986953 849.27664016 104.39178211 848.88775495 98.1875 846 C97.48117432 845.67894287 96.77484863 845.35788574 96.04711914 845.02709961 C87.9024313 841.19568126 81.75637745 836.25576483 76.00390625 829.35546875 C73.96380992 826.95746079 71.84378638 824.66009487 69.69262695 822.36230469 C64.69786213 817.02605072 59.88397217 811.60603139 55.31640625 805.89453125 C53.67866944 803.84805069 52.02538615 801.83012862 50.33984375 799.82421875 C30.71354649 776.22897336 15.27156738 749.07544173 1 722 C0.51031738 721.07268066 0.02063477 720.14536133 -0.48388672 719.18994141 C-42.71289561 638.58864485 -63.6081916 546.2879207 -48.99609375 362.3359375 C-42.63593099 342.30354017 -35.2003765 320.47260477 -21.76171875 303.9375 C-21.20266846 303.24043945 -20.64361816 302.54337891 -20.06762695 301.82519531 C-18.96855219 300.47770714 -17.84178056 299.15217823 -16.68432617 297.85449219 C-14.49537901 295.18920284 -13.03275608 293.25187546 -12.94067383 289.73266602 C-14.1458473 282.66690205 -17.23100473 276.0318431 -19.9375 269.4375 C-29.62935367 244.71310204 -31.74982041 215.96084774 -25 190 C-24.83902832 189.33645508 -24.67805664 188.67291016 -24.51220703 187.98925781 C-19.86675524 169.02367655 -11.30858174 151.84321106 0 136 C0.63711914 135.10039551 0.63711914 135.10039551 1.28710938 134.18261719 C9.0482253 123.38323495 18.45674936 114.2154483 28 105 C26.65218633 100.956559 23.95227011 99.6533412 20.5625 97.375 C11.13330911 90.84008354 3.0020063 83.20317405 -5 75 C-2.17785008 73.86706962 -1.05608735 73.98056756 1.875 74.99609375 C3.421875 75.70958984 3.421875 75.70958984 5 76.4375 C8.80483352 78.18296738 10.74932854 79 15 79 C14.10539062 78.5153125 13.21078125 78.030625 12.2890625 77.53125 C-5.93979528 67.49829316 -21.18553404 54.35823064 -27.64550781 33.96191406 C-30.40814003 23.82899128 -31.36516411 12.09549233 -28 2 C-24.49894796 3.49197615 -22.30198632 5.48994763 -19.6640625 8.2109375 C-18.84679687 9.04367188 -18.02953125 9.87640625 -17.1875 10.734375 C-15.48686012 12.48686365 -13.7863382 14.23946678 -12.0859375 15.9921875 C-7.95587926 20.20017137 -4.10754405 24.02198572 1 27 C0.83701416 26.45182617 0.67402832 25.90365234 0.50610352 25.33886719 C-0.06803556 22.68558577 -0.11273652 20.29257322 -0.09765625 17.578125 C-0.09443359 16.55332031 -0.09121094 15.52851563 -0.08789062 14.47265625 C-0.07532227 12.87744141 -0.07532227 12.87744141 -0.0625 11.25 C-0.05798828 10.17105469 -0.05347656 9.09210938 -0.04882812 7.98046875 C-0.03705727 5.32025617 -0.02061399 2.66015635 0 0 Z M310 164 C309.21753906 164.67160156 308.43507813 165.34320313 307.62890625 166.03515625 C282.21532503 188.36071611 257.80719687 217.72444684 254.83984375 252.8984375 C254.09654125 270.28525245 261.16334506 286.77968159 272 300 C272.66644531 300.83015625 273.33289063 301.6603125 274.01953125 302.515625 C290.15915935 321.55978728 315.00947909 335.54023581 340 338 C366.09639612 339.74079593 390.81550081 333.27502183 411 316 C411.78761719 315.35675781 412.57523438 314.71351563 413.38671875 314.05078125 C434.35489956 296.24264025 447.8484819 269.21988767 451 242 C453.41178263 210.44498139 445.02180147 179.65527373 424.23828125 155.42578125 C413.18081452 143.44203458 398.63355322 134.18811094 382 133 C381.17757812 132.93683594 380.35515625 132.87367188 379.5078125 132.80859375 C352.96305474 131.69357005 329.25696138 147.30269655 310 164 Z M42 155 C40.97712891 155.90298828 40.97712891 155.90298828 39.93359375 156.82421875 C25.49203256 170.30489328 17.14560021 188.98176627 13 208 C12.8249292 208.76111084 12.6498584 209.52222168 12.46948242 210.30639648 C7.31348489 239.88836256 15.92044777 270.33495257 32.015625 295.1015625 C48.64650827 318.44639495 71.2041277 332.80249247 99.484375 337.58984375 C127.04006134 340.80467382 154.40282866 332.45069478 176.15234375 315.4140625 C193.3889557 300.80195525 206.28497136 281.49258902 208.9375 258.625 C210.21837969 231.23388053 192.31010946 205.70861774 174.79150391 186.23510742 C172.55750325 183.79434041 170.28186707 181.39613356 168 179 C167.34644531 178.29359375 166.69289063 177.5871875 166.01953125 176.859375 C146.26237187 156.13331442 115.63515326 136.96971672 86.625 135.6875 C69.7226643 136.26406082 54.32913555 143.6964345 42 155 Z M6 328 C8.37675698 330.44466432 10.69689044 332.76774722 13.40625 334.84375 C22.71178397 342.57967583 28.21263814 354.12485109 33 365 C33.29616211 365.66725098 33.59232422 366.33450195 33.89746094 367.02197266 C45.83942754 394.68020634 50.05279091 426.46838711 55 456 C55.11645874 456.69236755 55.23291748 457.38473511 55.35290527 458.0980835 C60.49061317 488.85465131 63.0992568 519.9717839 66 551 C66.10268188 552.090849 66.20536377 553.181698 66.31115723 554.30560303 C69.97039183 593.23129725 72.1546786 632.2062242 73.93359375 671.2578125 C74.01588643 673.06151895 74.09819242 674.8652248 74.18051147 676.66893005 C74.22166014 677.57080583 74.2628088 678.4726816 74.30520439 679.40188694 C74.47360107 683.09201474 74.64212554 686.7821367 74.81071472 690.47225571 C74.89506335 692.3202535 74.97926197 694.16825814 75.06330872 696.01626968 C76.53635006 728.3883988 78.47331142 760.69129004 81 793 C84.05037654 789.94962346 83.76323632 786.19268055 84.18359375 782.0703125 C84.33378716 780.68876732 84.33378716 780.68876732 84.48701477 779.27931213 C84.81437283 776.22888476 85.12692357 773.17717894 85.4375 770.125 C85.5463855 769.07945953 85.655271 768.03391907 85.76745605 766.95669556 C87.36737086 751.55245908 88.70238159 736.13896561 89.75 720.6875 C89.83820511 719.40011932 89.83820511 719.40011932 89.92819214 718.08673096 C91.62846122 692.88249261 92.20899686 667.69497807 92.1875 642.4375 C92.18723312 641.73022892 92.18696625 641.02295784 92.18669128 640.2942543 C92.1753042 616.1505284 91.78990012 592.08570056 90 568 C89.93683594 567.14090027 89.87367188 566.28180054 89.80859375 565.39666748 C81.31683617 440.47670743 81.31683617 440.47670743 21.515625 335.75 C14.51029995 330.03150828 14.51029995 330.03150828 6 328 Z M425.5 341 C373.69038513 393.29566754 368.57981804 496.4449925 363.3125 565.8125 C363.25156158 566.61056061 363.19062317 567.40862122 363.12783813 568.23086548 C362.7071981 573.81800432 362.33369396 579.40700056 362 585 C361.92581345 586.24278717 361.92581345 586.24278717 361.85012817 587.51068115 C360.79566582 605.99633374 360.79858775 624.49120187 360.8125 643 C360.81276688 643.79644047 360.81303375 644.59288094 360.81330872 645.41345596 C360.82363639 669.99297247 361.05818766 694.48539873 363 719 C363.0678772 719.87561584 363.13575439 720.75123169 363.20568848 721.65338135 C365.11285307 746.19405489 367.5275621 770.6287337 371 795 C371.33 795 371.66 795 372 795 C373.82668575 773.52020578 375.29354829 752.03910212 376.359375 730.5078125 C376.41488651 729.38739248 376.47039803 728.26697247 376.52759171 727.11260033 C376.81778369 721.23379119 377.10464388 715.35482374 377.39044189 709.47579956 C379.39359442 668.37940262 381.66247791 627.30599698 384.40412903 586.25203705 C384.62082829 583.00010342 384.83527286 579.74802807 385.04919434 576.49591064 C386.47715341 554.85624337 388.06554153 533.23977998 390.0625 511.64453125 C390.18231672 510.33839528 390.18231672 510.33839528 390.30455399 509.00587273 C391.91551832 491.57804104 394.15095813 474.26821835 397 457 C397.20818359 455.73462402 397.41636719 454.46924805 397.63085938 453.16552734 C404.66797256 411.61949372 413.17543601 362.33975472 442 330 C435.90352507 330 429.60292974 337.09327225 425.5 341 Z M-34 436 C-32.70812197 444.92725717 -31.15972819 453.78812142 -29.39550781 462.63330078 C-28.99372856 464.65658175 -28.6023078 466.68171422 -28.2109375 468.70703125 C-27.95570313 469.99222656 -27.70046875 471.27742188 -27.4375 472.6015625 C-27.20933594 473.75994629 -26.98117187 474.91833008 -26.74609375 476.11181641 C-26.12547721 479.16815838 -26.12547721 479.16815838 -24 482 C-23.28152391 477.1445539 -22.56967325 472.28819808 -21.86376953 467.4309082 C-21.62304667 465.78090646 -21.38056018 464.13116096 -21.13623047 462.48168945 C-20.78401771 460.10173755 -20.43829601 457.72091617 -20.09375 455.33984375 C-19.9843811 454.61039047 -19.87501221 453.88093719 -19.7623291 453.12937927 C-19.12958146 448.70348776 -18.89739072 444.47119936 -19 440 C-20.74692795 439.32532438 -22.49768525 438.66055844 -24.25 438 C-25.71179688 437.443125 -25.71179688 437.443125 -27.203125 436.875 C-30.14783138 435.80094762 -30.14783138 435.80094762 -34 436 Z M477.8125 438 C475.875 438.66666667 473.9375 439.33333333 472 440 C472.58847721 449.34784749 473.68509593 458.55030939 475.0625 467.8125 C475.24876953 469.08931641 475.43503906 470.36613281 475.62695312 471.68164062 C476.08074267 474.78835368 476.53847793 477.89442795 477 481 C479.9636227 478.0363773 480.15500232 474.39857724 480.9453125 470.4140625 C481.12005096 469.56073334 481.29478943 468.70740417 481.474823 467.82821655 C481.84311492 466.02162797 482.20769138 464.21427859 482.56884766 462.40625 C483.12172786 459.64136357 483.68682328 456.87919195 484.25390625 454.1171875 C484.61010223 452.3621266 484.96559428 450.60692266 485.3203125 448.8515625 C485.48902863 448.02540436 485.65774475 447.19924622 485.83157349 446.34805298 C485.98528412 445.57400116 486.13899475 444.79994934 486.29736328 444.00244141 C486.43345001 443.32452545 486.56953674 442.6466095 486.70974731 441.94815063 C487.09824151 439.6688873 487.09824151 439.6688873 487 436 C483.5317263 436 481.08733513 436.87317501 477.8125 438 Z M-11 444 C-9.55017331 454.36911482 -7.5225922 464.57022063 -5.375 474.8125 C-5.04656814 476.39121223 -4.71844126 477.96998795 -4.390625 479.54882812 C-3.5972536 483.36662419 -2.7997965 487.183545 -2 491 C-1.67 491 -1.34 491 -1 491 C0.98 477.14 2.96 463.28 5 449 C-1.22606278 446.60080391 -1.22606278 446.60080391 -7.5 444.8125 C-8.655 444.544375 -9.81 444.27625 -11 444 Z M463 444 C460.85301798 444.64200436 458.70744047 445.28870746 456.5625 445.9375 C454.77005859 446.47697266 454.77005859 446.47697266 452.94140625 447.02734375 C450.14132455 447.70889142 450.14132455 447.70889142 449 449 C449.18261622 458.84659332 450.66049018 468.64515094 452.0625 478.375 C452.25108776 479.70827163 452.43924058 481.04160486 452.62695312 482.375 C453.08039329 485.58396115 453.53812675 488.79224376 454 492 C454.33 492 454.66 492 455 492 C456.31232201 485.80950473 457.6109754 479.61625598 458.90014648 473.42089844 C459.34035746 471.3134675 459.78369836 469.20668783 460.23022461 467.10058594 C460.87135793 464.07392318 461.50121414 461.04509997 462.12890625 458.015625 C462.33093155 457.07382385 462.53295685 456.13202271 462.74110413 455.16168213 C462.92136642 454.28107117 463.10162872 453.40046021 463.28735352 452.49316406 C463.44945816 451.72039124 463.61156281 450.94761841 463.77857971 450.15142822 C464.01677499 447.83700598 463.69823887 446.20442112 463 444 Z M129 451 C131.04245508 458.13337947 133.41713584 465.08915983 136.01171875 472.0390625 C136.38480667 473.04593109 136.75789459 474.05279968 137.14228821 475.09017944 C138.32112659 478.26953778 139.50423684 481.44728614 140.6875 484.625 C141.49312282 486.79546742 142.29846406 488.96603938 143.10351562 491.13671875 C145.06575847 496.42569143 147.03150019 501.71335313 149 507 C151.49254 504.78209484 152.64827526 502.88039961 153.79345703 499.75976562 C154.11033478 498.90878296 154.42721252 498.05780029 154.75369263 497.18103027 C155.08505219 496.26535278 155.41641174 495.34967529 155.7578125 494.40625 C156.1063327 493.46317993 156.45485291 492.52010986 156.81393433 491.54846191 C157.92541447 488.53510881 159.0252677 485.51765775 160.125 482.5 C160.87294863 480.46717207 161.62163792 478.43461649 162.37109375 476.40234375 C165.78087487 467.23485886 165.78087487 467.23485886 169 458 C163.94722783 456.99827536 158.89351388 456.00150005 153.83886719 455.00927734 C152.11984984 454.67111531 150.40109661 454.33160779 148.68261719 453.99072266 C146.21097093 453.5006795 143.73841199 453.01549967 141.265625 452.53125 C140.49881409 452.37813354 139.73200317 452.22501709 138.94195557 452.06726074 C135.53636264 451.40478442 132.4853151 451 129 451 Z M324.96582031 451.64257812 C324.18531311 451.78272339 323.40480591 451.92286865 322.60064697 452.06726074 C321.76821472 452.2203772 320.93578247 452.37349365 320.078125 452.53125 C319.21813904 452.68662231 318.35815308 452.84199463 317.47210693 453.0020752 C314.73080052 453.49811697 311.990403 453.99899381 309.25 454.5 C307.38938081 454.83755885 305.52870435 455.17480217 303.66796875 455.51171875 C299.11130697 456.33748865 294.55545423 457.16759542 290 458 C295.98710954 474.33809163 301.97596331 490.67547737 308 507 C308.66 507 309.32 507 310 507 C312.31578383 501.59830496 314.62673426 496.19457483 316.93359375 490.7890625 C317.71585873 488.95779301 318.49934837 487.12704609 319.28417969 485.296875 C324.1437593 473.96199878 328.79897761 462.59638002 333 451 C330.06590036 451 327.78911976 451.12925095 324.96582031 451.64257812 Z M14 453 C16.87471766 468.69313086 19.80939083 484.36779754 23 500 C25.28268961 496.26683874 25.71614435 492.31312991 26.2890625 488.05859375 C26.39721283 487.29450699 26.50536316 486.53042023 26.61679077 485.74317932 C26.84350274 484.13238468 27.06687208 482.52111649 27.28710938 480.90942383 C27.62440872 478.44182565 27.97143348 475.97575067 28.3203125 473.50976562 C28.53962917 471.94278754 28.75839792 470.37573265 28.9765625 468.80859375 C29.07965729 468.07104355 29.18275208 467.33349335 29.28897095 466.57359314 C29.68201338 463.68778085 30 460.91650685 30 458 C24.72 456.35 19.44 454.7 14 453 Z M429.3125 456 C428.13300781 456.37125 426.95351563 456.7425 425.73828125 457.125 C424.38283203 457.558125 424.38283203 457.558125 423 458 C423.66613777 463.33976039 424.34183364 468.67819162 425.02636719 474.015625 C425.25783355 475.83104742 425.48669694 477.64680372 425.71289062 479.46289062 C426.03870775 482.07514374 426.37390576 484.6860481 426.7109375 487.296875 C426.80998383 488.10743347 426.90903015 488.91799194 427.01107788 489.75311279 C427.11103058 490.51359924 427.21098328 491.27408569 427.31396484 492.05761719 C427.39834808 492.72380066 427.48273132 493.38998413 427.56967163 494.07635498 C428.06088617 496.27217209 428.92541257 498.03118507 430 500 C431.28448142 493.77090756 432.56591932 487.5411947 433.84521484 481.31103516 C434.28103223 479.19044722 434.71755342 477.0700038 435.15478516 474.94970703 C435.78211364 471.90695052 436.40693234 468.863688 437.03125 465.8203125 C437.22811401 464.86818878 437.42497803 463.91606506 437.62780762 462.93508911 C437.80799438 462.05432709 437.98818115 461.17356506 438.17382812 460.26611328 C438.33371216 459.48889923 438.49359619 458.71168518 438.6583252 457.91091919 C439.05866997 455.99540801 439.05866997 455.99540801 439 454 C435.42523541 454 432.71849498 454.92087288 429.3125 456 Z M184 459 C189.84743999 475.060206 195.69260814 491.1131222 202 507 C202.66 507 203.32 507 204 507 C206.12073195 501.37768283 208.23857741 495.75429016 210.35375977 490.12988281 C211.07367057 488.21682405 211.79436812 486.30406115 212.51586914 484.39160156 C213.55301768 481.64205155 214.58732883 478.89144866 215.62109375 476.140625 C215.94403915 475.28631897 216.26698456 474.43201294 216.59971619 473.55181885 C216.89995193 472.75129089 217.20018768 471.95076294 217.50952148 471.12597656 C217.77377426 470.42426331 218.03802704 469.72255005 218.31028748 468.99957275 C218.99398201 467.01744699 219.52338841 465.04086933 220 463 C213.47095965 461.67444969 206.92383021 460.6746582 200.3125 459.875 C199.61261963 459.78750488 198.91273926 459.70000977 198.19165039 459.60986328 C193.43128315 459.05403043 188.79259252 458.92469552 184 459 Z M262.16796875 459.875 C260.87568359 460.05546875 259.58339844 460.2359375 258.25195312 460.421875 C256.89712488 460.61450927 255.5423073 460.80721854 254.1875 461 C252.81319496 461.19302128 251.43884638 461.38573285 250.06445312 461.578125 C246.70919462 462.04903847 243.35441314 462.52310829 240 463 C240.58081767 468.66707414 242.09865607 473.48307643 244.16015625 478.77734375 C244.46948593 479.58869278 244.77881561 480.40004181 245.09751892 481.23597717 C246.07905662 483.80581259 247.07059621 486.3716503 248.0625 488.9375 C248.73308833 490.68789586 249.4030171 492.43854456 250.07226562 494.18945312 C251.70722806 498.46259815 253.35116674 502.73218903 255 507 C255.66 507 256.32 507 257 507 C259.42800557 500.64887336 261.84829126 494.29484488 264.26318359 487.9387207 C265.0859432 485.77593157 265.91048028 483.61381776 266.73681641 481.45239258 C267.92295675 478.34891974 269.10272357 475.24308958 270.28125 472.13671875 C270.65310425 471.16788254 271.0249585 470.19904633 271.40808105 469.20085144 C271.91861023 467.84979057 271.91861023 467.84979057 272.43945312 466.47143555 C272.89245789 465.28229805 272.89245789 465.28229805 273.35461426 464.06913757 C274.14888113 461.88392216 274.14888113 461.88392216 274 459 C269.97066454 458.89370261 266.15668168 459.31271448 262.16796875 459.875 Z M-32 503 C-30.86873752 507.86202172 -29.72673153 512.72132778 -28.57324219 517.578125 C-28.19616415 519.17123151 -27.82173947 520.7649688 -27.45019531 522.359375 C-26.93305503 524.57488308 -26.40528493 526.78760666 -25.875 529 C-25.71676758 529.68771484 -25.55853516 530.37542969 -25.39550781 531.08398438 C-24.99309637 532.73918617 -24.50422492 534.37292127 -24 536 C-23.34 536.33 -22.68 536.66 -22 537 C-21.15902586 532.77231562 -20.32855975 528.54263344 -19.5 524.3125 C-19.26152344 523.11431641 -19.02304687 521.91613281 -18.77734375 520.68164062 C-18.55175781 519.52470703 -18.32617188 518.36777344 -18.09375 517.17578125 C-17.88427734 516.11270752 -17.67480469 515.04963379 -17.45898438 513.9543457 C-17.03747195 511.24119577 -16.91143497 508.73887341 -17 506 C-18.9363704 505.49564306 -20.87414146 504.99666126 -22.8125 504.5 C-23.89144531 504.2215625 -24.97039062 503.943125 -26.08203125 503.65625 C-28.98933975 502.89029052 -28.98933975 502.89029052 -32 503 Z M476.375 504.5 C475.18648437 504.7784375 473.99796875 505.056875 472.7734375 505.34375 C471.85820313 505.5603125 470.94296875 505.776875 470 506 C470.5818324 513.14711654 471.66534594 520.09479725 473.0625 527.125 C473.24876953 528.08148437 473.43503906 529.03796875 473.62695312 530.0234375 C474.08059056 532.34978331 474.53832038 534.67523936 475 537 C475.99 536.505 475.99 536.505 477 536 C477.74650303 533.72693808 478.37281617 531.50913932 478.9453125 529.19140625 C479.2074202 528.1685276 479.2074202 528.1685276 479.474823 527.12498474 C479.84330261 525.68088696 480.20787117 524.23578649 480.56884766 522.78979492 C481.12233011 520.57319245 481.68699925 518.35968734 482.25390625 516.14648438 C482.61003271 514.74495863 482.96552282 513.343271 483.3203125 511.94140625 C483.48902863 511.27677872 483.65774475 510.61215118 483.83157349 509.92738342 C484.70719107 506.50493071 484.70719107 506.50493071 485 503 C482.0134628 503 479.27770697 503.81701012 476.375 504.5 Z M-9 509 C-8.34887891 516.40994144 -6.42228272 523.34692169 -4.4375 530.5 C-4.10814453 531.70398438 -3.77878906 532.90796875 -3.43945312 534.1484375 C-2.63119406 537.10034018 -1.81792254 540.05076314 -1 543 C-0.01 542.505 -0.01 542.505 1 542 C1.75725138 539.09348672 1.75725138 539.09348672 2.2890625 535.55859375 C2.39721283 534.91632339 2.50536316 534.27405304 2.61679077 533.61231995 C2.96119254 531.55533106 3.29321107 529.49655717 3.625 527.4375 C3.8559597 526.04478712 4.08772028 524.6522068 4.3203125 523.25976562 C4.89104787 519.84146844 5.44500803 516.42103827 6 513 C1.05 511.68 -3.9 510.36 -9 509 Z M452.8125 511.5 C451.72582031 511.7784375 450.63914062 512.056875 449.51953125 512.34375 C448.68808594 512.5603125 447.85664062 512.776875 447 513 C447.66631594 516.93431007 448.34200749 520.86688296 449.02636719 524.7980957 C449.25778282 526.13521779 449.4866473 527.47278405 449.71289062 528.81079102 C450.03882999 530.73569168 450.37475899 532.6588924 450.7109375 534.58203125 C450.90993652 535.73936768 451.10893555 536.8967041 451.31396484 538.08911133 C451.86136417 541.17017379 451.86136417 541.17017379 454 544 C455.14397482 539.64125819 456.28317467 535.28130705 457.41796875 530.92016602 C457.80467865 529.43675073 458.19269087 527.95367432 458.58203125 526.47094727 C459.14145196 524.33958289 459.69617699 522.20704354 460.25 520.07421875 C460.42499023 519.41161545 460.59998047 518.74901215 460.78027344 518.06632996 C461.49911058 515.28185301 462 512.8909461 462 510 C458.68455701 510 456.01998611 510.67226165 452.8125 511.5 Z M15 517 C17.97 528.55 20.94 540.1 24 552 C24.33 552 24.66 552 25 552 C25.8407021 547.60554278 26.6712735 543.20923004 27.5 538.8125 C27.85771484 536.94368164 27.85771484 536.94368164 28.22265625 535.03710938 C28.44824219 533.83505859 28.67382812 532.63300781 28.90625 531.39453125 C29.11572266 530.28956299 29.32519531 529.18459473 29.54101562 528.04614258 C29.95453206 525.3017572 30.09009749 522.76824525 30 520 C28.44033782 519.491217 26.87710759 518.99336531 25.3125 518.5 C24.44238281 518.2215625 23.57226562 517.943125 22.67578125 517.65625 C19.64983258 516.80150309 19.64983258 516.80150309 15 517 Z M428.25 518.5 C426.77273438 518.91765625 426.77273438 518.91765625 425.265625 519.34375 C424.14414062 519.66859375 424.14414062 519.66859375 423 520 C423.60030831 527.30191376 424.70298082 534.42867584 426.0625 541.625 C426.24876953 542.62917969 426.43503906 543.63335938 426.62695312 544.66796875 C427.08097233 547.11268755 427.53870544 549.55664548 428 552 C430.22520164 548.66219753 431.02299114 545.54086129 431.9453125 541.70703125 C432.12005096 541.00100266 432.29478943 540.29497406 432.474823 539.56755066 C433.03042884 537.3171898 433.57780869 535.06492007 434.125 532.8125 C434.5007612 531.2843721 434.87705705 529.75637557 435.25390625 528.22851562 C436.17547668 524.48717186 437.0896759 520.74409533 438 517 C434.29230285 517 431.77187446 517.49375016 428.25 518.5 Z M129 529 C131.0681298 536.19217941 133.44646182 543.22900924 136.01171875 550.2578125 C136.38480667 551.28687714 136.75789459 552.31594177 137.14228821 553.37619019 C138.32144141 556.62673854 139.5044036 559.87588504 140.6875 563.125 C141.49309188 565.34365803 142.29843284 567.56240718 143.10351562 569.78125 C145.06611201 575.18855644 147.0318281 580.59472063 149 586 C151.7079162 584.6460419 151.81629679 583.37949792 152.87939453 580.57202148 C153.239617 579.63112167 153.59983948 578.69022186 153.97097778 577.72080994 C154.35438324 576.69790359 154.7377887 575.67499725 155.1328125 574.62109375 C155.52951141 573.57929459 155.92621033 572.53749542 156.33493042 571.46412659 C157.60490287 568.12438582 158.86503653 564.78102803 160.125 561.4375 C160.98242918 559.17749004 161.84049382 556.91772106 162.69921875 554.65820312 C164.80687049 549.10824763 166.90644851 543.55528862 169 538 C166.04552293 535.04552293 162.47155232 534.9656559 158.4921875 534.2734375 C157.65156769 534.12089508 156.81094788 533.96835266 155.94485474 533.81118774 C153.25617566 533.3250472 150.56568297 532.84991106 147.875 532.375 C146.05325548 532.04759715 144.23163899 531.71948108 142.41015625 531.390625 C137.94154838 530.58546248 133.47128321 529.79016461 129 529 Z M332 529 C312.2 532.465 312.2 532.465 292 536 C290.96896936 540.12412254 290.97705847 540.76331402 292.4152832 544.46142578 C292.74925613 545.33558136 293.08322906 546.20973694 293.42732239 547.11038208 C293.79806381 548.04590912 294.16880524 548.98143616 294.55078125 549.9453125 C294.92478561 550.91153534 295.29878998 551.87775818 295.68412781 552.8732605 C296.47681414 554.91445384 297.27487355 556.9535675 298.07788086 558.99072266 C299.30869753 562.11534682 300.52187139 565.24638241 301.73242188 568.37890625 C302.50417757 570.3597769 303.27693043 572.3402594 304.05078125 574.3203125 C304.41544998 575.259888 304.78011871 576.1994635 305.15583801 577.16751099 C305.49926743 578.03536224 305.84269684 578.9032135 306.1965332 579.79736328 C306.49711136 580.56251251 306.79768951 581.32766174 307.1073761 582.11599731 C307.9561472 584.1803166 307.9561472 584.1803166 310 586 C312.31333932 580.5789541 314.62442774 575.15695575 316.93359375 569.73413086 C317.71653111 567.89631375 318.50004247 566.05874104 319.28417969 564.22143555 C321.87309134 558.15470842 324.44593303 552.08147986 327 546 C327.48986389 544.83781952 327.48986389 544.83781952 327.98962402 543.65216064 C328.87445765 541.54382283 329.74803446 539.43124782 330.6171875 537.31640625 C331.10558105 536.1363501 331.59397461 534.95629395 332.09716797 533.74047852 C333.33167351 531.07616043 333.33167351 531.07616043 332 529 Z M184 537 C187.57224809 547.54439895 191.44941465 557.9717252 195.43347168 568.36642456 C195.97862189 569.79089333 196.52134097 571.21629485 197.06164551 572.64260864 C197.83094517 574.67076498 198.60947951 576.69513148 199.390625 578.71875 C199.84469727 579.90404297 200.29876953 581.08933594 200.76660156 582.31054688 C201.71428412 585.11821843 201.71428412 585.11821843 204 586 C206.28320922 579.91446279 208.56135386 573.82704765 210.8359375 567.73828125 C211.61080466 565.66590162 212.38684302 563.59395951 213.1640625 561.52246094 C214.27910461 558.54996348 215.38996614 555.57593324 216.5 552.6015625 C216.84998047 551.67131256 217.19996094 550.74106262 217.56054688 549.78262329 C217.88087891 548.92188202 218.20121094 548.06114075 218.53125 547.17431641 C218.81548828 546.41486725 219.09972656 545.65541809 219.39257812 544.87295532 C220.10283136 543.01108964 220.10283136 543.01108964 220 541 C215.5163482 540.42716511 211.0322983 539.85759377 206.54785156 539.29101562 C205.02299867 539.09789783 203.4982575 538.90389564 201.97363281 538.70898438 C199.77958637 538.42864989 197.58515508 538.1515197 195.390625 537.875 C194.7113092 537.78750488 194.03199341 537.70000977 193.33209229 537.60986328 C190.17631041 537.21520443 187.18989154 537 184 537 Z M259.60327148 538.52368164 C257.57469548 538.81077404 255.54450184 539.08288605 253.51367188 539.35351562 C252.23169922 539.53205078 250.94972656 539.71058594 249.62890625 539.89453125 C248.45400635 540.05800049 247.27910645 540.22146973 246.06860352 540.38989258 C243.29992157 540.94036884 241.45649544 541.69328116 239 543 C241.23215192 548.9668748 243.47523128 554.92955523 245.72607422 560.8894043 C246.49098899 562.91872027 247.25336689 564.94899432 248.01318359 566.98022461 C249.1037415 569.89430339 250.20328071 572.80485102 251.3046875 575.71484375 C251.6443454 576.6283812 251.9840033 577.54191864 252.33395386 578.48313904 C252.65413483 579.32393509 252.9743158 580.16473114 253.30419922 581.03100586 C253.58399628 581.77491074 253.86379333 582.51881561 254.15206909 583.28526306 C254.88003105 585.19148399 254.88003105 585.19148399 257 586 C262.94 570.16 268.88 554.32 275 538 C269.94174711 536.3139157 264.80907963 537.78305113 259.60327148 538.52368164 Z M464.25 561 C463.05117188 561.2784375 463.05117188 561.2784375 461.828125 561.5625 C461.22484375 561.706875 460.6215625 561.85125 460 562 C458.86992393 566.1939905 459.20081031 569.36530384 459.99609375 573.61328125 C460.22490234 574.86044922 460.45371094 576.10761719 460.68945312 577.39257812 C460.93630859 578.68615234 461.18316406 579.97972656 461.4375 581.3125 C461.68378996 582.63851479 461.92924154 583.96468559 462.17382812 585.29101562 C462.77432215 588.52897361 463.3833286 591.76509085 464 595 C466.99396124 589.5790784 468.09729352 583.4555712 469.625 577.5 C469.94984375 576.26378906 470.2746875 575.02757812 470.609375 573.75390625 C471.06957031 571.97306641 471.06957031 571.97306641 471.5390625 570.15625 C471.81959473 569.07150391 472.10012695 567.98675781 472.38916016 566.86914062 C473.138822 563.83685449 473.138822 563.83685449 473 560 C469.72782865 560 467.37445544 560.26483401 464.25 561 Z M-21 563 C-18.03 574.55 -15.06 586.1 -12 598 C-11.67 598 -11.34 598 -11 598 C-10.1592979 593.60554278 -9.3287265 589.20923004 -8.5 584.8125 C-8.14228516 582.94368164 -8.14228516 582.94368164 -7.77734375 581.03710938 C-7.55175781 579.83505859 -7.32617188 578.63300781 -7.09375 577.39453125 C-6.88427734 576.28956299 -6.67480469 575.18459473 -6.45898438 574.04614258 C-6.04546794 571.3017572 -5.90990251 568.76824525 -6 566 C-7.9363704 565.49564306 -9.87414146 564.99666126 -11.8125 564.5 C-12.89144531 564.2215625 -13.97039062 563.943125 -15.08203125 563.65625 C-17.98933975 562.89029052 -17.98933975 562.89029052 -21 563 Z M441.8125 567.5 C440.72582031 567.7784375 439.63914062 568.056875 438.51953125 568.34375 C437.68808594 568.5603125 436.85664062 568.776875 436 569 C436.68110706 575.93295289 437.78040181 582.71709235 439.0625 589.5625 C439.24876953 590.57119141 439.43503906 591.57988281 439.62695312 592.61914062 C440.08179803 595.07996816 440.53953118 597.54021974 441 600 C441.99 599.505 441.99 599.505 443 599 C443.74650303 596.72693808 444.37281617 594.50913932 444.9453125 592.19140625 C445.2074202 591.1685276 445.2074202 591.1685276 445.474823 590.12498474 C445.84330261 588.68088696 446.20787117 587.23578649 446.56884766 585.78979492 C447.12233011 583.57319245 447.68699925 581.35968734 448.25390625 579.14648438 C448.61003271 577.74495863 448.96552282 576.343271 449.3203125 574.94140625 C449.48902863 574.27677872 449.65774475 573.61215118 449.83157349 572.92738342 C450.70719107 569.50493071 450.70719107 569.50493071 451 566 C447.68455701 566 445.01998611 566.67226165 441.8125 567.5 Z M2 569 C4.66656387 580.76863385 7.6886082 592.39655743 11 604 C11.33 604 11.66 604 12 604 C12.86947052 599.60705049 13.71789105 595.21029146 14.5625 590.8125 C14.80935547 589.56662109 15.05621094 588.32074219 15.31054688 587.03710938 C15.53935547 585.83505859 15.76816406 584.63300781 16.00390625 583.39453125 C16.21861572 582.28956299 16.4333252 581.18459473 16.65454102 580.04614258 C17.19596949 576.65659899 17.19596949 576.65659899 16 572 C11.38 571.01 6.76 570.02 2 569 Z M166 615 C172.10026333 631.77572416 178.21982146 648.48667117 185 665 C186.71118679 662.43321981 187.7116849 660.40491526 188.78759766 657.56030273 C189.12779938 656.66605087 189.4680011 655.77179901 189.81851196 654.85044861 C190.18004364 653.88788651 190.54157532 652.9253244 190.9140625 651.93359375 C191.28856537 650.94375992 191.66306824 649.95392609 192.04891968 648.93409729 C192.83914905 646.84258588 193.62748283 644.75035743 194.4140625 642.6574707 C195.62227765 639.44473894 196.83804425 636.2349388 198.0546875 633.02539062 C198.82076619 630.99496279 199.58640624 628.96436938 200.3515625 626.93359375 C200.71714264 625.96900742 201.08272278 625.00442108 201.4593811 624.01060486 C201.7932785 623.11950516 202.1271759 622.22840546 202.47119141 621.31030273 C202.76716217 620.52437241 203.06313293 619.73844208 203.36807251 618.92869568 C204.10378619 617.02149935 204.10378619 617.02149935 204 615 C191.46 615 178.92 615 166 615 Z M220 615 C220.68727847 619.12367083 221.21870015 621.99015002 222.67407227 625.72021484 C223.01434952 626.60067474 223.35462677 627.48113464 223.70521545 628.38827515 C224.07190842 629.31975372 224.43860138 630.2512323 224.81640625 631.2109375 C225.19232407 632.17907379 225.56824188 633.14721008 225.95555115 634.14468384 C227.15248051 637.22358553 228.3573666 640.29930148 229.5625 643.375 C230.37748073 645.46724248 231.19193979 647.55968824 232.00585938 649.65234375 C233.99786833 654.77059979 235.99641177 659.88626648 238 665 C239.60111391 662.59832913 240.56654526 660.79512682 241.57226562 658.15869141 C241.86597046 657.39424713 242.15967529 656.62980286 242.46228027 655.8421936 C242.77379028 655.02028534 243.08530029 654.19837708 243.40625 653.3515625 C243.73161743 652.50201996 244.05698486 651.65247742 244.39221191 650.77719116 C245.43161715 648.06110774 246.46592362 645.34311615 247.5 642.625 C248.53521781 639.91447154 249.57145629 637.20433488 250.60778809 634.49423218 C251.25199712 632.80839767 251.89534516 631.12223383 252.53771973 629.43569946 C252.83142456 628.66495087 253.12512939 627.89420227 253.42773438 627.10009766 C253.83608521 626.02517059 253.83608521 626.02517059 254.25268555 624.92852783 C254.87694933 623.31754591 255.54026383 621.72176709 256.21289062 620.13037109 C257.173286 617.90950964 257.173286 617.90950964 257 615 C244.79 615 232.58 615 220 615 Z M273 615 C273.7119008 618.55950398 274.41135557 621.37800909 275.67407227 624.69848633 C276.01434952 625.59904251 276.35462677 626.49959869 276.70521545 627.42744446 C277.07190842 628.3859581 277.43860138 629.34447174 277.81640625 630.33203125 C278.19232407 631.32377853 278.56824188 632.31552582 278.95555115 633.33732605 C280.15421637 636.49711807 281.3582819 639.65482059 282.5625 642.8125 C283.37731026 644.95754667 284.19176754 647.10272745 285.00585938 649.24804688 C286.99981663 654.50025967 288.99820882 659.75076834 291 665 C293.14132312 662.85867688 293.72811478 661.48803799 294.78759766 658.68969727 C295.29790024 657.35304771 295.29790024 657.35304771 295.81851196 655.98939514 C296.18004364 655.02480881 296.54157532 654.06022247 296.9140625 653.06640625 C297.28856537 652.07752914 297.66306824 651.08865204 298.04891968 650.06980896 C298.83996301 647.97682422 299.62827112 645.88280399 300.4140625 643.7878418 C301.61983013 640.57626999 302.83661367 637.36903091 304.0546875 634.16210938 C304.82097804 632.13045923 305.58662475 630.09856612 306.3515625 628.06640625 C306.71714264 627.10384415 307.08272278 626.14128204 307.4593811 625.14955139 C307.7932785 624.25529953 308.1271759 623.36104767 308.47119141 622.43969727 C308.76716217 621.65297134 309.06313293 620.86624542 309.36807251 620.05567932 C310.14691778 617.88050803 310.14691778 617.88050803 310 615 C297.79 615 285.58 615 273 615 Z " fill="#56140A" transform="translate(369,140)"/>
    <path d="M0 0 C1.65 0 3.3 0 5 0 C5 18.15 5 36.3 5 55 C11.6 55 18.2 55 25 55 C28.96351867 55.27908655 32.77090217 55.59033168 36.6875 56.125 C38.16597412 56.31968872 38.16597412 56.31968872 39.67431641 56.51831055 C67.836558 60.51007172 95.89348913 69.20551478 120.4375 83.75 C121.03393311 84.10231689 121.63036621 84.45463379 122.24487305 84.81762695 C126.04962441 87.16472455 128.97086641 89.76137493 132 93 C130.34104817 93.82947591 128.68206557 94.65889032 127.02294922 95.48803711 C125.57353618 96.21307311 124.1246546 96.93917239 122.67626953 97.66625977 C119.23297092 99.39316601 115.78715964 101.11040139 112.3125 102.7734375 C103.74900948 106.91894541 95.8463019 111.65193616 88 117 C87.41718262 117.39590332 86.83436523 117.79180664 86.23388672 118.19970703 C69.02917241 129.97185354 52.31089885 143.90990249 39 160 C37.70255859 161.46566406 37.70255859 161.46566406 36.37890625 162.9609375 C25.15902845 175.65456544 15.46997777 189.38363533 6.42553711 203.69458008 C3.18514778 208.81485222 3.18514778 208.81485222 1 211 C-2.20882284 206.44412867 -5.4093766 201.88431246 -8.52734375 197.265625 C-20.17189816 180.05544021 -32.99021788 163.42875829 -48 149 C-50.42343519 146.59592132 -52.82735105 144.18098799 -55.18359375 141.7109375 C-76.55162588 119.5652127 -103.00154815 104.95618344 -131 93 C-129.72941921 89.18825763 -128.63192818 88.97078203 -125.13671875 87.14453125 C-123.60470825 86.3405188 -123.60470825 86.3405188 -122.04174805 85.52026367 C-120.93484619 84.95670166 -119.82794434 84.39313965 -118.6875 83.8125 C-117.54901611 83.23024658 -116.41053223 82.64799316 -115.23754883 82.0480957 C-87.29086983 67.95248337 -57.91681281 60.18513976 -27 56 C-26.17918945 55.8851123 -25.35837891 55.77022461 -24.51269531 55.65185547 C-16.26989506 54.65320184 -8.4547021 55 0 55 C0 36.85 0 18.7 0 0 Z " fill="#56140A" transform="translate(598,97)"/>
    <path d="M0 0 C7.33815431 6.13736543 11.61192436 16.67564173 12.5703125 25.98828125 C12.83555376 31.14575024 11.7939483 34.54927608 9.36328125 38.9765625 C5.80801188 42.41714576 2.7457188 42.87602159 -2.07421875 43.2265625 C-6.12336016 42.94241223 -7.55156973 42.58707321 -10.63671875 39.9765625 C-12.79954461 37.07219634 -14.75137932 34.06696425 -16.63671875 30.9765625 C-19.90001036 31.27322537 -21.27751479 31.58001925 -23.515625 34.05078125 C-24.07121094 34.91316406 -24.62679687 35.77554687 -25.19921875 36.6640625 C-25.79734375 37.56769531 -26.39546875 38.47132812 -27.01171875 39.40234375 C-28.2571356 41.37525169 -29.48261554 43.36075725 -30.69921875 45.3515625 C-33.05008184 48.53660282 -35.10843673 50.17783049 -38.63671875 51.9765625 C-43.09376869 52.61328392 -46.29581543 52.32302755 -49.97265625 49.5703125 C-53.95143751 45.75964876 -57.22843438 41.29007747 -60.63671875 36.9765625 C-62.61439975 34.62275812 -64.62318075 32.29987558 -66.63671875 29.9765625 C-69.65064835 30.63971329 -69.65064835 30.63971329 -70.70825195 32.5871582 C-71.19297974 33.60942505 -71.19297974 33.60942505 -71.6875 34.65234375 C-72.05681641 35.39806641 -72.42613281 36.14378906 -72.80664062 36.91210938 C-73.56158778 38.48265757 -74.31168492 40.05554739 -75.05664062 41.63085938 C-77.49367775 46.52597884 -79.52417793 49.51736565 -84.63671875 51.9765625 C-87.671875 52.47265625 -87.671875 52.47265625 -90.69921875 52.4140625 C-91.70082031 52.41277344 -92.70242188 52.41148438 -93.734375 52.41015625 C-97.28194559 51.88016926 -98.86016086 51.28595351 -101.63671875 48.9765625 C-103.65279237 46.03906719 -105.30186842 42.94465358 -106.94921875 39.7890625 C-107.40361328 38.94408203 -107.85800781 38.09910156 -108.32617188 37.22851562 C-109.4415069 35.15047036 -110.54439338 33.06676765 -111.63671875 30.9765625 C-116.58719904 31.43908913 -119.09109269 32.73539879 -122.82421875 35.9765625 C-127.84446722 40.29505581 -130.92638487 41.43150039 -137.63671875 40.9765625 C-141.79429428 39.37749499 -144.34893015 37.82968015 -146.63671875 33.9765625 C-149.01251319 26.84917919 -147.93046346 20.11023979 -144.890625 13.36328125 C-140.93652554 5.83694241 -136.54345 1.32614138 -128.63671875 -2.0234375 C-121.05364092 -4.37164898 -112.67755703 -3.61975291 -105.63671875 -0.0234375 C-103.73850175 1.36196557 -101.86439208 2.78082014 -100.01171875 4.2265625 C-95.98626268 7.29165528 -95.98626268 7.29165528 -91.13671875 8.4140625 C-86.85193227 6.65423948 -83.24403703 4.25243189 -79.390625 1.69921875 C-71.95488173 -2.95207598 -64.32813964 -4.09059695 -55.63671875 -3.0234375 C-51.16778751 -1.63110717 -47.88646427 0.67378681 -44.44921875 3.7890625 C-41.915294 6.17360002 -41.915294 6.17360002 -39.26171875 6.1640625 C-36.74691789 5.02641449 -35.08983349 3.81319633 -32.94921875 2.1015625 C-23.21288253 -5.46506583 -10.78403192 -5.88219923 0 0 Z " fill="#56140A" transform="translate(760.63671875,1008.0234375)"/>
    <path d="M0 0 C9.51019413 8.38425148 13.90700795 18.96920332 14.80078125 31.55078125 C14.99718132 44.4477195 11.43365025 56.73258566 2.78515625 66.56640625 C-6.91876752 75.11975293 -19.28953881 78.84311302 -32.03125 78.53515625 C-44.33188455 77.68545115 -56.03073539 73.27348762 -64.47265625 63.92578125 C-72.63238613 52.76782504 -75.17030868 41.22828151 -74.15234375 27.62890625 C-72.92618172 19.8217027 -70.47316205 13.23319498 -66.15234375 6.62890625 C-65.59546875 5.76265625 -65.03859375 4.89640625 -64.46484375 4.00390625 C-47.20170906 -13.72579965 -19.26837034 -15.28445282 0 0 Z " fill="#56140A" transform="translate(519.15234375,343.37109375)"/>
    <path d="M0 0 C6.52269545 5.73997199 11.96380119 15.92741576 13.0078125 24.546875 C13.87281975 39.17012521 13.06081456 51.44318953 4.0078125 63.546875 C-3.94354641 72.39721796 -13.72235101 76.92594791 -25.45703125 78.39453125 C-35.31831553 78.81949267 -45.35994975 77.58079334 -53.9921875 72.546875 C-55.0028125 71.969375 -56.0134375 71.391875 -57.0546875 70.796875 C-66.63741961 63.45690998 -72.48070331 55.01086663 -74.7109375 42.98046875 C-76.45033927 27.92981178 -73.29978891 15.82275942 -64.8671875 3.421875 C-48.18026556 -15.41650542 -18.9382374 -13.81377316 0 0 Z " fill="#56140A" transform="translate(740.9921875,343.453125)"/>
    <path d="M0 0 C2.75853319 2.18918477 5.3044337 4.49428591 7.8359375 6.94140625 C10.02120099 9.13804623 10.02120099 9.13804623 13 11 C17.23129428 10.85895686 19.22744703 7.9045793 22 5 C27.40172689 -0.27896037 32.094212 -1.93915302 39.51953125 -2.03125 C48.34831831 -1.4887746 54.22213027 1.8093582 60.45703125 7.92578125 C64.90978534 13.91163548 65.47734319 19.32456184 65.375 26.5625 C65.38660156 27.38685547 65.39820313 28.21121094 65.41015625 29.06054688 C65.38123332 35.09097704 64.42540294 39.57459706 60 44 C54.11327191 43.80377573 50.65206101 42.82502794 46 39 C45.12622652 37.95356469 44.27195323 36.89055137 43.4375 35.8125 C41.25818993 32.91755509 41.25818993 32.91755509 38.5 31.8125 C35.47986382 32.03901021 34.3027774 33.04681466 32.3125 35.2734375 C30.78347304 37.28483606 29.42762094 39.37410853 28.0625 41.5 C25.10416567 46.08656486 21.96078064 49.51960968 17 52 C11.44622314 52.73863362 6.47610857 52.91474224 1.75 49.625 C-2.7180918 45.7728797 -5.85271944 40.94208109 -9 36 C-9.66 35.01 -10.32 34.02 -11 33 C-12.32 33 -13.64 33 -15 33 C-15.26296875 33.56847656 -15.5259375 34.13695312 -15.796875 34.72265625 C-19.63525274 41.98815697 -25.26151629 48.25666732 -32.375 52.375 C-37.69077912 53.6406617 -41.56007957 52.86395226 -46.125 50.125 C-49.56946181 46.93325686 -51.46179378 42.78826747 -53.5078125 38.62109375 C-55.04246625 35.92540614 -56.7178119 34.08139472 -59 32 C-62.39415616 33.45463835 -64.48024162 35.32275672 -67 38 C-72.52188851 43.86700654 -72.52188851 43.86700654 -77.18359375 44.1171875 C-82.20788423 43.57731573 -85.53358343 42.97618371 -89 39 C-92.74055927 32.17007194 -92.78147511 25.47276024 -90.9375 18.0625 C-88.36539143 10.32235848 -84.10180814 4.75216599 -76.8125 1 C-68.65781328 -2.69850358 -60.91411238 -3.25784057 -52.375 -0.3125 C-48.83548457 1.07730973 -45.77591309 2.69214871 -42.625 4.8125 C-39.76292416 6.69192864 -39.76292416 6.69192864 -36.375 7.125 C-33.78190215 5.89669049 -31.99126439 4.23387873 -29.859375 2.34375 C-21.04588364 -4.02566393 -9.59185442 -5.07989658 0 0 Z " fill="#56140A" transform="translate(515,1007)"/>
    <path d="M0 0 C6.15446438 4.96653902 10.92952685 13.27325766 12.09375 21.109375 C12.58284212 36.84183808 4.90843638 50.83442274 -2.3125 64.375 C-2.86099609 65.41060059 -3.40949219 66.44620117 -3.97460938 67.51318359 C-5.83041366 71.01245872 -7.69385967 74.5075694 -9.5625 78 C-10.16513672 79.12720459 -10.76777344 80.25440918 -11.38867188 81.41577148 C-14.16405261 86.56159655 -16.92976851 91.60233428 -20.3125 96.375 C-23.23422417 93.80246156 -24.87503463 90.8644229 -26.75390625 87.4765625 C-27.07799973 86.89381561 -27.4020932 86.31106873 -27.73600769 85.71066284 C-28.78901197 83.81070247 -29.83293797 81.90598159 -30.875 80 C-31.23154663 79.35039307 -31.58809326 78.70078613 -31.95544434 78.03149414 C-56.48956172 33.26313839 -56.48956172 33.26313839 -52.1875 16.3125 C-49.14191119 7.13303839 -42.44401199 0.35127696 -34.1875 -4.4375 C-22.59194604 -9.22696794 -10.22336679 -6.84149261 0 0 Z " fill="#FECB00" transform="translate(620.3125,415.625)"/>
    <path d="M0 0 C12.29776691 10.29580485 20.91081292 24.25786223 23.6875 40.25 C24.73463655 52.49744789 24.81118551 64.90127603 19.6875 76.25 C19.26339844 77.19746094 18.83929687 78.14492188 18.40234375 79.12109375 C14.89575399 86.16357626 10.21171526 91.69721121 4.6875 97.25 C4.08421875 97.88808594 3.4809375 98.52617187 2.859375 99.18359375 C-9.40207804 111.15183813 -26.84733177 114.26885181 -43.3125 114.25 C-61.69836587 113.36511875 -78.56347514 105.69585111 -91.25 92.375 C-104.29943052 76.91166384 -107.73345226 58.92263879 -106.3125 39.25 C-104.32416667 25.22820868 -97.10742245 14.09422575 -87.3125 4.25 C-86.64734375 3.55003906 -85.9821875 2.85007812 -85.296875 2.12890625 C-62.0766636 -20.60385796 -24.65975951 -19.52230961 0 0 Z M-87.734375 13.921875 C-98.3284392 27.70212392 -100.79002583 42.32827014 -99.3125 59.25 C-96.54636904 75.31334285 -86.52614564 88.27796305 -73.9453125 98.09765625 C-60.32165226 107.06541914 -44.32362672 109.3335628 -28.484375 106.5859375 C-12.03102264 102.41823811 0.88116699 92.62633864 9.6875 78.25 C10.161875 77.48042969 10.63625 76.71085937 11.125 75.91796875 C17.7578337 64.01440112 19.15060957 50.29288489 15.9296875 37.16015625 C10.78740793 20.3721259 1.36951202 8.48562856 -13.83203125 -0.1875 C-38.5260441 -12.62706269 -69.29040969 -6.4259835 -87.734375 13.921875 Z " fill="#56140A" transform="translate(752.3125,325.75)"/>
    <path d="M0 0 C1.38391727 1.17709568 2.75936187 2.36424554 4.125 3.5625 C4.78757812 4.07167969 5.45015625 4.58085937 6.1328125 5.10546875 C16.28425506 13.16690843 22.31203614 24.37062816 26.125 36.5625 C26.36992188 37.30628906 26.61484375 38.05007813 26.8671875 38.81640625 C30.87197632 53.2720481 28.16284445 70.1865808 21.4375 83.375 C11.98178187 99.11877069 -1.8055144 110.35950202 -19.625 115.375 C-38.60170707 119.54243371 -57.66456625 117.46088318 -74.5625 107.4375 C-88.78861449 97.70934818 -98.64134217 84.1400381 -102.38964844 67.24243164 C-104.61994031 54.92758563 -103.88207246 41.02278696 -98.875 29.5625 C-98.43929688 28.54027344 -98.00359375 27.51804687 -97.5546875 26.46484375 C-90.34688558 10.88732649 -77.90075591 -1.06361981 -61.875 -7.4375 C-41.66719859 -14.6502243 -17.46982006 -13.35043048 0 0 Z M-83.87109375 16.75 C-93.13919644 27.91158604 -97.41823284 41.73855577 -96.8125 56.1875 C-95.21676643 72.43038807 -87.89220458 86.63478853 -75.46533203 97.31054688 C-61.87061955 108.01267853 -46.92637391 111.47443019 -29.875 110.5625 C-15.79887771 108.66126415 -3.65757069 101.6530405 6.125 91.5625 C6.98351562 90.71751953 6.98351562 90.71751953 7.859375 89.85546875 C16.86155684 80.31965242 21.13108856 66.95902911 21.5 54.0625 C21.03022706 38.25933827 14.25358687 22.82424944 3.125 11.5625 C-11.02135525 -0.95852932 -26.25437627 -5.36510238 -44.72607422 -4.58105469 C-60.49888255 -3.52738378 -73.48522065 5.36822126 -83.87109375 16.75 Z " fill="#56140A" transform="translate(526.875,322.4375)"/>
    <path d="M0 0 C3.05357079 1.61320721 5.23833566 3.03060902 7.375 5.75 C8.52587579 9.89315284 9.11075048 13.90701562 7.0546875 17.78125 C4.50085855 21.05786073 2.05798179 23.13043247 -2 24 C-5.534263 24.06425933 -7.89326693 23.81791457 -10.78125 21.68359375 C-13.9148063 18.49830421 -15.40659442 15.87867378 -15.625 11.375 C-15.32519572 7.1848783 -14.14951199 4.88705266 -11 2 C-7.51335549 -0.52481154 -4.20248882 -0.43474022 0 0 Z " fill="#56140A" transform="translate(604,70)"/>
    <path d="M0 0 C1.67542976 0.28604898 3.34385343 0.61781233 5 1 C4.67 2.32 4.34 3.64 4 5 C3.34 5 2.68 5 2 5 C1.71253906 5.5775 1.42507813 6.155 1.12890625 6.75 C0.41597685 8.17092503 -0.30441488 9.58815251 -1.03515625 11 C-1.37417969 11.66 -1.71320312 12.32 -2.0625 13 C-2.40410156 13.66 -2.74570312 14.32 -3.09765625 15 C-6.34942634 22.20738652 -6.07864361 30.98685985 -3.375 38.3125 C-1.57309303 42.36516441 0.74180468 45.36135173 3.92578125 48.4296875 C5 50 5 50 4.66796875 52.1953125 C4.44753906 52.79085937 4.22710938 53.38640625 4 54 C1.17875257 54 -0.4989913 53.49075788 -2.52734375 51.50390625 C-10.26972325 41.71265278 -12.12983293 32.11061607 -11.22753906 19.8984375 C-10.32002726 12.32675108 -5.30605439 5.30605439 0 0 Z " fill="#56140A" transform="translate(576,55)"/>
    <path d="M0 0 C2.2734375 -0.25390625 2.2734375 -0.25390625 5 0 C6.9140625 1.72265625 6.9140625 1.72265625 8.625 4.0625 C9.19476562 4.81660156 9.76453125 5.57070313 10.3515625 6.34765625 C14.68027235 13.31257091 15.55366198 18.69440487 15.5 26.8125 C15.49500488 27.79283203 15.49000977 28.77316406 15.48486328 29.78320312 C15.31443511 36.82129881 14.53474026 42.37597488 10 48 C9.49597656 48.64324219 8.99195313 49.28648438 8.47265625 49.94921875 C6.9375 51.6875 6.9375 51.6875 4 54 C1.81640625 53.64453125 1.81640625 53.64453125 0 53 C0.59941002 49.68862515 1.72079655 47.86860708 3.875 45.3125 C8.70221729 39.03479675 10.63084543 32.53026567 10.34765625 24.61328125 C9.34361203 17.06602751 6.65210962 10.83904669 1.171875 5.53515625 C0 4 0 4 0 0 Z " fill="#56140A" transform="translate(620,55)"/>
    <path d="M0 0 C2.88110604 0 4.53225806 0.54140705 6.59765625 2.56640625 C12.28324466 9.70482315 13.70325619 16.14988039 12.68359375 25.17578125 C11.31129292 30.84534409 8.10783572 35.89216428 4 40 C1.875 39.625 1.875 39.625 0 39 C0 34.20468248 1.04666754 33.5613715 4 30 C6.76409223 24.1992994 7.24750118 17.75479419 5.20703125 11.61328125 C3.55006556 8.17872784 1.78660891 5.61893331 -1 3 C-0.67 2.01 -0.34 1.02 0 0 Z " fill="#55140A" transform="translate(614,62)"/>
    <path d="M0 0 C-0.53395304 4.53860088 -2.4197418 7.29087883 -5 11 C-6.98766827 16.96300482 -6.9064274 23.75363643 -4.5625 29.5625 C-4.046875 30.366875 -3.53125 31.17125 -3 32 C-2.67 32.99 -2.34 33.98 -2 35 C-1.34 35 -0.68 35 0 35 C-0.495 37.475 -0.495 37.475 -1 40 C-4.62605799 39.45059727 -5.96930216 38.29817142 -8.125 35.375 C-12.57226837 29.05224219 -13.82798396 22.60956691 -13 15 C-11.47267797 8.08212964 -7.68942972 0 0 0 Z " fill="#56140A" transform="translate(587,62)"/>
   </symbol>
</svg>
