<?xml version="1.0" encoding="UTF-8"?>
<svg
  id="Layer_1"
  data-name="Layer 1"
  xmlns="http://www.w3.org/2000/svg"
  xmlns:xlink="http://www.w3.org/1999/xlink"
  style="width:249.47px;height:445.27px;visibility:visible;">
  <defs>
    <style>
      .cls-1 {
        fill-rule: evenodd;
      }

      .cls-1, .cls-2 {
        fill: #56140a;
      }

      .cls-1, .cls-2, .cls-3, .cls-4 {
        stroke-width: 0px;
      }

      .cls-3 {
        fill: #fc0;
      }

      .cls-4 {
        fill: #fff;
      }
    </style>
   </defs>
   <symbol id="rd-icon-spotter" viewBox="0 0 48 48" fill="black">
      <path class="cls-1" d="M133.69,7.3c-.59-.53-.64-1.44-.1-2.03.53-.59,1.44-.64,2.03-.1,3.49,3.15,5.69,7.72,5.69,12.79s-2.2,9.64-5.69,12.79c-.59.53-1.5.49-2.03-.1-.53-.59-.48-1.5.1-2.03,2.91-2.63,4.74-6.43,4.74-10.65s-1.83-8.03-4.74-10.65h0ZM114.49,28.61c.59.53.64,1.44.1,2.03-.53.59-1.44.64-2.03.1-3.49-3.15-5.69-7.72-5.69-12.79s2.2-9.64,5.69-12.79c.59-.53,1.5-.49,2.03.1.53.59.49,1.5-.1,2.03-2.91,2.63-4.74,6.43-4.74,10.65s1.83,8.03,4.74,10.65h0ZM138.02,2.51c-.59-.53-.64-1.44-.1-2.03.53-.59,1.44-.64,2.03-.1,4.81,4.33,7.83,10.61,7.83,17.58s-3.02,13.25-7.83,17.58c-.59.53-1.5.48-2.03-.1-.53-.59-.48-1.5.1-2.03,4.22-3.81,6.88-9.32,6.88-15.45s-2.66-11.64-6.88-15.45h0ZM110.17,33.4c.59.53.64,1.44.1,2.03-.53.59-1.44.64-2.03.1-4.81-4.33-7.83-10.61-7.83-17.58s3.02-13.25,7.83-17.58c.59-.53,1.5-.48,2.03.1.53.59.49,1.5-.1,2.03-4.22,3.81-6.88,9.32-6.88,15.45s2.66,11.64,6.88,15.45h0ZM125.53,28.25v37.63c0,.79-.64,1.44-1.44,1.44s-1.44-.64-1.44-1.44V28.25c.47.07.95.1,1.44.1s.97-.03,1.44-.1ZM124.09,10.44c4.15,0,7.52,3.37,7.52,7.52s-3.37,7.52-7.52,7.52-7.52-3.37-7.52-7.52,3.37-7.52,7.52-7.52Z"/>
      <rect class="cls-3" x="112.05" y="166.12" width="25.67" height="49.32" rx="11.09" ry="11.09"/>
      <rect class="cls-4" x="121.38" y="179.86" width="6.5" height="2.08"/>
      <rect class="cls-3" x="109.79" y="170.8" width="25.67" height="49.32" rx="11.09" ry="11.09"/>
      <rect class="cls-3" x="114.88" y="172.53" width="25.67" height="49.32" rx="11.09" ry="11.09"/>
      <path class="cls-2" d="M115.44,428.81q-.08-.16-.06-.08c-2.18-4.28-7.02-7.28-11.94-6.32-3.3,0-6.56,3.52-8.22,5.84-.74.92-6.14-4.86-7.96-5.64-3.04-1.34-6.4-1.2-9.32.46-4.2,1.38-3.94,5.2-8.36,1.8-6.3-4.84-15.72-3.26-19.14,4.52-1.4,3.2-1.66,9.18,2.02,11.04,4.1,2.08,6.36-.58,8.6-3.42,3.52-4.4,5.44,4.54,7.9,6.56,4.34,3.54,8.6-.28,11.02-4.04,4.74-7.34,4-1.58,8.1,2.68,4.5,4.68,9.2,2.68,12.22-2.12.92-1.46,1.92-4.36,4.04-4.36,2.98,0,3.72,4.7,6.94,5,6.02,2.94,5.2-9.36,4.16-11.78.16.24.36.68,0-.14h0Z"/>
      <path class="cls-2" d="M192.48,423.57c-3.44-2.18-7.72-2.42-11.28-.4-3.56,1.74-4.28,4.98-7.52,1.62-4.24-4.42-10.14-3-14.9-.2-4.76,3.2-4.76,3.8-8.9.32-4.28-3.58-10.16-3.8-14.68-.4-4.58,3.64-7.82,14.44.02,15.82,4.68.82,6.26-4.74,10.02-4.74,1.28,0,3.84,7.16,5.26,8.3,2.24,1.8,5.84,1.84,8.1.06,2.62-2.06,2.9-6.84,5.34-8.48,3.16-2.1,8.22,16.78,15.9,6.82,1.16-1.5,4.72-9.66,7.08-5.56,1.52,2.68,2.04,4.44,5.56,4.44,9.8.02,5.28-14.4,0-17.6h0Z"/>
      <path class="cls-2" d="M124.58,167.49c-.06,0-.12.02-.18.02h.38c-.08,0-.14-.02-.2-.02h0Z"/>
      <path class="cls-2" d="M243.88,208.53c1.04,3.46.64,2.1,0-.02v-.02c0-.1-.04-.2-.04-.3-.1-.2-.16-.4-.2-.62-.1-.3-.2-.66-.3-1.02-.04-.2-.1-.36-.16-.52-.08-.18-.12-.36-.18-.52-.52-1.7-.76-2.52,0-.02-.02-.06-.04-.12-.06-.16-2.76-8.66-6.86-16.84-11.88-24.42-.66-.94-3.38-3.54-2.7-4.86,1.48-2.92,2.76-5.94,3.84-9.06,1.74-5.18,2.82-10.54,3.12-15.98,1.24-21.46-9.36-39.48-24.62-53.56-1.54-1.24,6.04-5.48,7.12-6.3.96-.72,6.74-6.6,6.74-6.6-2.96,0-6.56,2.1-9.62,2.56-.2-.06-.36-.2-.4-.4,0-.46,7.16-3.68,8.04-4.3,2.82-1.9,5.32-4.24,7.32-6.96,4.5-6.2,5.78-13.88,4-21.24,0,.62-9.48,11.16-11.58,11.16-.46,0,1.48-12.76-.56-11.78-1.18.82-2.4,3.8-3.38,4.96-1.74,2.1-3.58,4.14-5.52,6.04-4.36,4.3-9.26,8.08-14.54,11.26-9.68,5.78-20.88,8.56-30.36,14.74-10.08,6.56-18.84,14.96-26,24.62-3.48,4.66-6.72,9.62-9.78,14.6-.62,1.02-7.68,12.28-7.94,11.72-12.74-17.92-23.24-36.66-41.78-49.46-9.52-6.56-20.64-9.52-30.42-15.46-5.28-3.22-10.4-6.7-14.96-10.9-1.94-1.8-3.84-3.68-5.48-5.78-.66-.82-4.1-7.12-4.76-7.12-1.18,0-.16,11.98.06,11.98-2.16,0-12.18-11.12-12.4-11.12-1.84,7.28-.26,14.84,4.04,21,2.1,2.96,4.76,5.58,7.74,7.64.72.52,7.28,4.5,7.94,4.5-1.9,1.84-8.08-2.36-9.94-2.36.26,0,4.66,4.76,5.38,5.42,2.76,2.36,5.74,4.5,8.8,6.4.62.4.62,1.18.16,1.64-18.48,15.76-28.68,39.84-22.64,64.16.46,2.04,6.1,14.44,5.18,15.36-4.4,5.18-7.88,10.8-10.6,17.04-5.38,12.08-8.6,25.04-9.72,38.24-4.72,52.94,10.76,108.24,40.34,151.92,3.58,5.22,7.62,10.24,11.78,15.04,2.82,3.22,5.68,6.44,8.7,9.52,3.44,3.38,6.6,3.58,10.64,5.84,7.06-4.2,15.42-4.1,22.22.56,9.72-6.14,23.86-2.56,29.08,7.84,5.48-9.92,21.2-15.66,30.72-7.46,6.66-4.04,15.2-5.52,22.16-1.28,3.68-2.04,6.92-2,10.04-5.12,3.08-3.08,6-6.24,8.86-9.52,5.88-6.82,11.42-14,16.38-21.52,10.5-15.88,18.38-33.12,24.32-51.2,12.24-37.4,18.78-80.24,7.8-118.8h0ZM124.56,167.49c2.92.06,1.64.06.2.06,9,.2,15.82,8.9,12.96,17.82-2.92,9.04-8.44,17.6-12.96,25.94-.1,0-.16.06-.2.1-.1,0-.16-.04-.26-.1-4.44-8.34-10.02-16.94-12.9-25.96-2.82-8.86,4-17.72,13-17.82-1.42-.04-2.7-.04.16-.04h0ZM135.36,270.35l-7.48-19.96,15.92-2.2-8.44,22.16ZM143.88,281.67l-8.4,22.16-7.58-19.96,15.98-2.2ZM120.48,283.61l-7.68,20.22-8.44-22.16,16.12,1.94ZM104.34,248.17l16.08,1.94-7.68,20.22-8.4-22.16ZM28.42,244.03l-2.86,19.82-4.46-22.02,7.32,2.2ZM18.52,240.39l-2.86,19.82-4.46-22.06,7.32,2.24ZM12.18,267.01l7.12,1.68-2.82,14.92-4.3-16.6ZM21.34,309.21l-4.36-16.64,7.06,1.68-2.7,14.96ZM21.81,269.73l7.12,1.68-2.76,14.96-4.36-16.64ZM31.02,311.93l-4.36-16.6,7.12,1.68-2.76,14.92ZM36.67,289.45l-4.36-16.64,7.12,1.68-2.76,14.96ZM31.84,245.82l7.32,2.3-2.82,19.82-4.5-22.12ZM64,367.2s-.04.08-.04.14c.02-.18.04-.38.04-.56v.42ZM64.47,361.42c-.12,1.54-.26,3-.38,4.46.12-1.46.24-2.92.38-4.48.02-.22.02-.46.04-.68-.02.24-.02.46-.04.7h0ZM64.57,359.38v.04s-.02.1-.02.16v-.16c-.08.74-.46,5.74-.6,7.92,0,.08-.02.2-.02.28,0-.08.02-.16.02-.24v.42c-.04.36-.04.56-.04.62-1.44,15.92-2.86,26.12-2.86,26.12-3.22-32.62-2.96-65.48-5.94-98.1-1.84-20.38-3.44-40.76-7.58-60.82-2.92-14.18-6.6-36.5-21.1-43.56,11.16,0,19.5,17.92,22.88,26.32,5.84,14.48,9.62,29.74,11.88,45.2,4.7,31.7,5.38,63.84,3.38,95.8h0ZM61.49,195.28s-.16,0-.36-.1h-.1l-.06-.04c-.3-.1-.62-.2-.88-.3-19.56-7.16-30.72-28.88-29.04-49.04.88-10.04,5.28-19.76,12.64-26.68,9.12-8.56,19.46-10.64,31.02-5.94,10.7,4.4,20.38,12.04,27.86,20.84,6.44,7.68,14.48,20.38,12.54,30.98-4.42,23.88-31.54,37.34-53.62,30.28h0ZM98.47,248.16l-8.4,22.16-9.42-25.56,17.82,3.4ZM90.13,303.82l-9.42-25.56,17.82,3.38-8.4,22.18ZM105.23,337.32l-8.44-22.16h16.84l-8.4,22.16ZM127.91,337.32l-8.44-22.16h16.84l-8.4,22.16ZM150.59,337.32l-8.44-22.16h16.84l-8.4,22.16ZM158.17,303.82l-8.44-22.16,19.04-3.38-10.6,25.54ZM158.05,270.34l-8.34-22.16,19.04-3.38-10.7,25.54ZM175.57,197.28c-21.76,0-46.96-20.74-39.28-44.04,3.58-11.06,10.56-20.38,19.16-28.16,7.98-7.28,19.76-15.72,31.08-15.72,22.52,0,34.3,27.14,32.16,46.12-2.56,22.24-19.72,41.8-43.12,41.8h0ZM200.41,225.64s-.02.04-.02.04c0-.02.02-.04.02-.08v.04ZM200.45,225.48s0,.02-.02.02c0-.02.02-.04.02-.08v.06ZM200.61,224.88c0,.1-.06.26-.16.46v.08q-.02.06-.04.1l-.02.02v.04c-.02.06-.02.08-.04.12,0,0-.02.02-.02.04v.04c-.12.48-.1.38,0,.04,0,.06-.04.14-.04.2-.04.08-.04.14-.04.14-8.4,30.36-8.86,63.02-11.16,94.26-1.8,24.58-1.94,49.3-4.4,73.88-4.66-32.58-5.94-66-3.64-98.78,1.48-20.88,4.04-41.76,9.94-61.88,3.68-12.8,11.98-40.04,28.36-41.84-11.72,3.8-15.82,22.48-18.68,32.88-.02,0-.06.08-.06.2h0ZM224.57,241.88l-4.5,22.12-2.82-19.86,7.32-2.26ZM213.81,245.96l-4.52,22.02-2.76-19.82,7.28-2.2ZM209.01,289.48l-2.76-14.9,7.12-1.68-4.36,16.58ZM214.63,310.44l-2.76-14.9,7.12-1.7-4.36,16.6ZM216.73,271.56l7.12-1.68-4.36,16.58-2.76-14.9ZM224.31,307.72l-2.72-15,7.02-1.64-4.3,16.64ZM229.17,283.76l-2.82-15,7.12-1.68-4.3,16.68ZM229.99,260.26l-2.86-19.82,7.32-2.26-4.46,22.08Z"/>
      <path class="cls-2" d="M80.12,79.19c7.82,4.46,2.42,1.4.22.14,18.38,10.52,33,26.8,43.98,44.76,13.7-22.5,31.12-40.12,55.72-50.22-31.72-22.26-79.68-20.04-111.9-.26,3.84,2.06,8.04,3.38,11.88,5.52-.6-.34-.78-.44.1.06h0Z"/>
      <path class="cls-2" d="M80.02,79.12c.1.04.2.12.32.18-.08-.04-.14-.1-.22-.14-.04,0-.06-.02-.1-.04Z"/>
      <path class="cls-2" d="M177.56,126.65c-1.84-.4-3.74-.6-5.6-.6-8.02,0-15.68,3.58-21.02,9.84-5.2,6.08-7.4,13.68-6.18,21.4,2.46,15.9,16.32,23.14,28.16,23.14s21.16-6.52,25.16-17.02c.1-.3.2-.54.3-.8,2.5-7.26,1.7-15.34-2.18-22.2-4.02-7.1-10.8-12.12-18.64-13.76h0ZM193.88,165.59c-4.64,7.74-12.96,12.54-21.74,12.54-3.2,0-6.38-.64-9.4-1.9-.12-.06-.24-.1-.36-.16-.08-.04-.16-.06-.26-.1l-.12-.08h-.12s-.06-.04-.1-.04c-.1-.04-.2-.1-.22-.1l-.24-.1c-.08-.04-.16-.06-.34-.16-.08-.04-.18-.08-.26-.1v-.02c-8.28-4.3-13.54-12.66-13.76-21.78-.12-6.62,2.12-12.46,6.46-16.9,4.72-4.8,11.54-7.56,18.72-7.56,9.52,0,17.82,4.9,22.2,13.1,4.1,7.54,3.92,16.08-.46,23.36h0Z"/>
      <path class="cls-2" d="M101.14,139.21c-2.2-3.48-5.76-6.58-6.82-7.44-.5-.4-.82-.66-.82-.66l-.16-.08c-.08-.02-.16-.08-.28-.2-4.32-3-9.3-4.7-13.6-4.7-11.22-.98-21.7,5.06-26.84,15.28-4.68,9.32-3.8,19.8,2.32,28.02,5.22,6.98,13.36,10.98,22.32,10.98,13.22,0,24.46-8.56,27.34-20.8v-.12c.08-.2.1-.36.1-.48.02-.06.04-.14.04-.28.04-.16.04-.28.04-.28,1.46-5.88.06-13.26-3.64-19.24h0ZM102.26,158.26c-2.36,11.46-12.76,19.78-24.74,19.78-1.68,0-3.36-.18-5.02-.52-6.5-1.28-12.4-5.24-16.16-10.88-3.7-5.54-5.04-12.08-3.76-18.42,2.34-11.48,12.76-19.82,24.76-19.82,1.5,0,3.02.14,4.58.42.06,0,.12.02.2.02.1.02.2.04.16.02,13.48,2.76,22.62,16.22,19.98,29.4h0Z"/>
      <path class="cls-2" d="M96.14,154.09c0,24.84-37.28,24.84-37.28,0s37.28-24.86,37.28,0"/>
      <path class="cls-2" d="M190.38,154.09c0,24.84-37.26,24.84-37.26,0s37.26-24.86,37.26,0"/>
   </symbol>
  <use xlink:href="#rd-icon-spotter"></use>
</svg>
